<svg width="249" height="185" viewBox="0 0 249 185" fill="none" xmlns="http://www.w3.org/2000/svg">
<path d="M21.4157 40.1637C19.1987 40.1637 17.2004 39.6677 15.4209 38.6759C13.6415 37.6549 12.2266 36.2401 11.1765 34.4314C10.1554 32.6228 9.64494 30.4932 9.64494 28.0428C9.64494 25.5632 10.1554 23.4191 11.1765 21.6104C12.2266 19.8018 13.6415 18.4016 15.4209 17.4097C17.2004 16.4179 19.1987 15.922 21.4157 15.922C23.3994 15.922 25.1351 16.3595 26.6229 17.2347C28.1106 18.1098 29.2629 19.4372 30.0797 21.2166C30.8965 22.9961 31.3049 25.2715 31.3049 28.0428C31.3049 30.785 30.9111 33.0603 30.1235 34.869C29.3358 36.6485 28.1982 37.9758 26.7104 38.8509C25.2518 39.7261 23.4869 40.1637 21.4157 40.1637ZM22.5972 34.5627C23.7057 34.5627 24.7121 34.3001 25.6165 33.7751C26.5208 33.25 27.2355 32.5061 27.7606 31.5434C28.3148 30.5516 28.592 29.3847 28.592 28.0428C28.592 26.6717 28.3148 25.5049 27.7606 24.5422C27.2355 23.5795 26.5208 22.8357 25.6165 22.3106C24.7121 21.7855 23.7057 21.5229 22.5972 21.5229C21.4595 21.5229 20.4385 21.7855 19.5342 22.3106C18.6298 22.8357 17.9005 23.5795 17.3463 24.5422C16.8212 25.5049 16.5586 26.6717 16.5586 28.0428C16.5586 29.3847 16.8212 30.5516 17.3463 31.5434C17.9005 32.5061 18.6298 33.25 19.5342 33.7751C20.4385 34.3001 21.4595 34.5627 22.5972 34.5627ZM28.767 39.8136V35.0003L28.8983 27.9991L28.4607 21.0416V7.34548H35.2869V39.8136H28.767ZM52.8067 40.1637C50.2979 40.1637 48.0663 39.6386 46.1118 38.5884C44.1864 37.5382 42.6549 36.1088 41.5172 34.3001C40.4087 32.4623 39.8544 30.3765 39.8544 28.0428C39.8544 25.6799 40.4087 23.5941 41.5172 21.7855C42.6549 19.9477 44.1864 18.5182 46.1118 17.4972C48.0663 16.4471 50.2979 15.922 52.8067 15.922C55.2863 15.922 57.5033 16.4471 59.4578 17.4972C61.4123 18.5182 62.9438 19.9331 64.0524 21.7417C65.1609 23.5504 65.7151 25.6507 65.7151 28.0428C65.7151 30.3765 65.1609 32.4623 64.0524 34.3001C62.9438 36.1088 61.4123 37.5382 59.4578 38.5884C57.5033 39.6386 55.2863 40.1637 52.8067 40.1637ZM52.8067 34.5627C53.9444 34.5627 54.9654 34.3001 55.8697 33.7751C56.774 33.25 57.4887 32.5061 58.0138 31.5434C58.5389 30.5516 58.8014 29.3847 58.8014 28.0428C58.8014 26.6717 58.5389 25.5049 58.0138 24.5422C57.4887 23.5795 56.774 22.8357 55.8697 22.3106C54.9654 21.7855 53.9444 21.5229 52.8067 21.5229C51.669 21.5229 50.648 21.7855 49.7436 22.3106C48.8393 22.8357 48.11 23.5795 47.5558 24.5422C47.0307 25.5049 46.7681 26.6717 46.7681 28.0428C46.7681 29.3847 47.0307 30.5516 47.5558 31.5434C48.11 32.5061 48.8393 33.25 49.7436 33.7751C50.648 34.3001 51.669 34.5627 52.8067 34.5627ZM80.3859 40.1637C78.1688 40.1637 76.1706 39.6677 74.3911 38.6759C72.6116 37.6549 71.1968 36.2401 70.1466 34.4314C69.1256 32.6228 68.6151 30.4932 68.6151 28.0428C68.6151 25.5632 69.1256 23.4191 70.1466 21.6104C71.1968 19.8018 72.6116 18.4016 74.3911 17.4097C76.1706 16.4179 78.1688 15.922 80.3859 15.922C82.3696 15.922 84.1053 16.3595 85.593 17.2347C87.0808 18.1098 88.2331 19.4372 89.0499 21.2166C89.8667 22.9961 90.2751 25.2715 90.2751 28.0428C90.2751 30.785 89.8813 33.0603 89.0937 34.869C88.306 36.6485 87.1683 37.9758 85.6806 38.8509C84.222 39.7261 82.4571 40.1637 80.3859 40.1637ZM81.5674 34.5627C82.6759 34.5627 83.6823 34.3001 84.5866 33.7751C85.4909 33.25 86.2057 32.5061 86.7307 31.5434C87.285 30.5516 87.5621 29.3847 87.5621 28.0428C87.5621 26.6717 87.285 25.5049 86.7307 24.5422C86.2057 23.5795 85.4909 22.8357 84.5866 22.3106C83.6823 21.7855 82.6759 21.5229 81.5674 21.5229C80.4297 21.5229 79.4086 21.7855 78.5043 22.3106C77.6 22.8357 76.8707 23.5795 76.3164 24.5422C75.7914 25.5049 75.5288 26.6717 75.5288 28.0428C75.5288 29.3847 75.7914 30.5516 76.3164 31.5434C76.8707 32.5061 77.6 33.25 78.5043 33.7751C79.4086 34.3001 80.4297 34.5627 81.5674 34.5627ZM87.7372 39.8136V35.0003L87.8684 27.9991L87.4309 21.0416V7.34548H94.257V39.8136H87.7372ZM115.015 39.8136V35.2191L114.577 34.2126V25.9862C114.577 24.5276 114.125 23.3899 113.221 22.5731C112.346 21.7563 110.989 21.3479 109.151 21.3479C107.897 21.3479 106.657 21.5521 105.432 21.9605C104.236 22.3397 103.215 22.8648 102.369 23.5358L99.9185 18.7662C101.202 17.8619 102.748 17.1618 104.557 16.6658C106.365 16.1699 108.203 15.922 110.07 15.922C113.658 15.922 116.444 16.7679 118.428 18.4599C120.412 20.1519 121.404 22.7919 121.404 26.38V39.8136H115.015ZM107.839 40.1637C106.001 40.1637 104.426 39.8574 103.113 39.2448C101.8 38.603 100.794 37.7424 100.094 36.6631C99.3934 35.5837 99.0434 34.3731 99.0434 33.0312C99.0434 31.6309 99.3789 30.4057 100.05 29.3555C100.75 28.3054 101.844 27.4885 103.332 26.9051C104.819 26.2925 106.759 25.9862 109.151 25.9862H115.409V29.9681H109.895C108.291 29.9681 107.182 30.2307 106.57 30.7558C105.986 31.2809 105.695 31.9372 105.695 32.7249C105.695 33.6 106.03 34.3001 106.701 34.8252C107.401 35.3212 108.349 35.5691 109.545 35.5691C110.683 35.5691 111.704 35.3066 112.608 34.7815C113.513 34.2272 114.169 33.425 114.577 32.3748L115.627 35.5254C115.132 37.0423 114.227 38.1946 112.915 38.9822C111.602 39.7698 109.91 40.1637 107.839 40.1637ZM132.536 39.8136L124.047 16.272H130.48L137.525 36.5318H134.462L141.813 16.272H147.589L154.721 36.5318H151.658L158.922 16.272H164.961L156.428 39.8136H149.821L143.563 22.4418H145.576L139.1 39.8136H132.536ZM178.695 40.1637C176.186 40.1637 173.955 39.6386 172 38.5884C170.075 37.5382 168.543 36.1088 167.406 34.3001C166.297 32.4623 165.743 30.3765 165.743 28.0428C165.743 25.6799 166.297 23.5941 167.406 21.7855C168.543 19.9477 170.075 18.5182 172 17.4972C173.955 16.4471 176.186 15.922 178.695 15.922C181.175 15.922 183.392 16.4471 185.346 17.4972C187.301 18.5182 188.832 19.9331 189.941 21.7417C191.049 23.5504 191.604 25.6507 191.604 28.0428C191.604 30.3765 191.049 32.4623 189.941 34.3001C188.832 36.1088 187.301 37.5382 185.346 38.5884C183.392 39.6386 181.175 40.1637 178.695 40.1637ZM178.695 34.5627C179.833 34.5627 180.854 34.3001 181.758 33.7751C182.663 33.25 183.377 32.5061 183.902 31.5434C184.427 30.5516 184.69 29.3847 184.69 28.0428C184.69 26.6717 184.427 25.5049 183.902 24.5422C183.377 23.5795 182.663 22.8357 181.758 22.3106C180.854 21.7855 179.833 21.5229 178.695 21.5229C177.557 21.5229 176.536 21.7855 175.632 22.3106C174.728 22.8357 173.999 23.5795 173.444 24.5422C172.919 25.5049 172.657 26.6717 172.657 28.0428C172.657 29.3847 172.919 30.5516 173.444 31.5434C173.999 32.5061 174.728 33.25 175.632 33.7751C176.536 34.3001 177.557 34.5627 178.695 34.5627ZM196.166 39.8136V16.272H202.686V22.9232L201.767 20.9978C202.467 19.3351 203.591 18.0807 205.137 17.2347C206.683 16.3595 208.564 15.922 210.781 15.922V22.2231C210.49 22.1939 210.227 22.1793 209.994 22.1793C209.76 22.1501 209.512 22.1355 209.25 22.1355C207.383 22.1355 205.866 22.6752 204.699 23.7546C203.561 24.8047 202.993 26.453 202.993 28.6992V39.8136H196.166ZM220.528 35.0003L220.703 26.6863L231.686 16.272H239.825L229.279 26.9926L225.735 29.8806L220.528 35.0003ZM214.883 39.8136V7.34548H221.709V39.8136H214.883ZM232.43 39.8136L224.466 29.9244L228.754 24.6297L240.7 39.8136H232.43Z" fill="white"/>
<path d="M176.107 179.757C179.931 177.904 179.931 177.904 181.275 176.066C180.722 172.248 178.229 169.201 176.153 166.053C175.761 165.416 175.368 164.779 174.964 164.123C174.558 163.51 174.152 162.898 173.734 162.267C173.375 161.71 173.016 161.153 172.647 160.579C170.776 158.944 170.101 158.873 167.745 158.42C161.427 156.704 157.242 151.186 152.824 146.643C151.81 145.619 150.794 144.596 149.777 143.574C147.117 140.895 144.474 138.2 141.833 135.502C139.13 132.746 136.413 130.005 133.696 127.263C128.378 121.89 123.077 116.501 117.787 111.101C118.532 109.593 119.281 108.119 120.14 106.672C120.882 104.845 120.726 104.053 120.001 102.242C118.525 100.766 118.525 100.766 115.803 100.212C111.673 99.2378 108.836 96.9864 106.526 93.4384C105.331 91.1678 104.543 89.1951 104.072 86.6543C102.971 82.8113 100.191 80.3702 97.4334 77.6039C96.876 77.036 96.3186 76.468 95.7443 75.8829C94.5663 74.6894 93.3834 73.5009 92.1958 72.3169C90.3829 70.5014 88.5992 68.6601 86.8155 66.8159C85.6657 65.6578 84.5141 64.5014 83.3608 63.3468C82.8308 62.794 82.3007 62.2412 81.7546 61.6717C78.0525 58.0521 78.0525 58.0521 75.5464 57.753C69.3349 58.4351 65.5225 62.6126 61.7762 67.2369C60.472 70.0302 59.8857 72.5756 60.2045 75.666C61.5687 78.107 63.4437 79.9065 65.4471 81.8372C66.2748 82.6702 66.2748 82.6702 67.1192 83.5201C68.2909 84.6903 69.4717 85.8514 70.6609 87.0038C72.4592 88.7517 74.2197 90.532 75.9785 92.3195C86.2573 102.575 86.2573 102.575 93.6568 104.547C96.9151 105.612 98.8566 107.34 100.577 110.271C101.58 112.559 101.58 112.559 102.284 114.931C103.007 116.964 103.593 117.877 105.237 119.222C107.698 118.237 110.158 117.253 112.619 116.269C118.562 122.109 124.492 127.96 130.408 133.828C133.155 136.552 135.906 139.272 138.667 141.983C141.334 144.601 143.989 147.23 146.637 149.866C147.647 150.868 148.661 151.866 149.679 152.86C151.109 154.258 152.524 155.669 153.937 157.083C154.357 157.488 154.777 157.892 155.209 158.308C157.913 161.054 159.138 163.53 160.144 167.251C160.792 169.267 161.783 170.133 163.511 171.313C164.088 171.719 164.664 172.124 165.259 172.542C165.915 172.974 166.572 173.406 167.248 173.851C168.439 174.659 168.439 174.659 169.653 175.483C171.794 176.925 173.945 178.348 176.107 179.757Z" fill="#1565C0"/>
<path d="M136.243 125.128C139.291 122.646 142.093 120.027 144.833 117.215C153.015 108.606 153.015 108.606 163.821 104.794C171.953 104.01 177.947 101.898 183.666 95.7858C186.523 92.1296 188.657 88.4699 188.657 83.7866C184.174 84.1966 180.654 87.0286 176.957 89.3839C176.417 89.716 175.876 90.0482 175.32 90.3903C174.59 90.853 174.59 90.853 173.845 91.325C172.039 92.061 171.263 91.8614 169.463 91.1689C164.202 87.8107 162.161 82.7659 160.737 76.834C161.479 73.5947 162.169 73.3287 164.895 71.5856C166.407 70.7267 167.93 69.8882 169.463 69.0681C170.238 68.6337 171.012 68.1992 171.811 67.7517C173.726 66.6808 175.65 65.6291 177.584 64.5925C177.097 63.3745 176.609 62.1564 176.107 60.9014C167.381 60.6105 158.471 61.4339 151.668 67.4417C148.273 71.0534 146.624 74.2463 146.543 79.314C146.381 86.1736 144.481 89.8469 139.934 94.8601C139.511 95.3282 139.089 95.7963 138.654 96.2785C133.808 101.606 128.807 106.77 123.693 111.839C127.584 116.572 131.881 120.836 136.243 125.128Z" fill="#1565C0"/>
<path d="M75.7074 184.186C93.209 183.97 93.209 183.97 100.251 178.459C104.674 173.917 105.946 168.64 106.113 162.455C106.886 152.259 119.63 142.319 126.646 135.463C125.643 133.216 124.516 131.681 122.764 129.961C122.303 129.504 121.841 129.047 121.365 128.577C120.885 128.108 120.404 127.64 119.909 127.158C119.423 126.678 118.937 126.199 118.436 125.704C117.238 124.525 116.038 123.348 114.834 122.175C112.208 123.404 110.643 124.802 108.651 126.927C105.598 130.053 102.407 132.823 98.9618 135.509C98.5104 135.861 98.0589 136.213 97.5938 136.576C94.4577 138.99 92.7448 139.922 88.8068 140.256C80.7398 140.999 74.0838 142.957 68.6942 149.397C63.1575 157.056 63.1575 157.056 63.1575 162.039C65.5597 161.567 67.293 160.694 69.3632 159.401C69.9732 159.03 70.5832 158.659 71.2117 158.278C72.4902 157.492 73.7648 156.7 75.0355 155.901C75.6455 155.534 76.2555 155.166 76.884 154.787C77.4374 154.444 77.9907 154.1 78.5609 153.747C80.131 152.998 80.131 152.998 81.6984 153.709C86.6842 157.107 89.1099 160.834 90.2414 166.653C90.5198 168.052 90.5198 168.052 90.8037 169.479C90.9379 170.191 91.0721 170.903 91.2103 171.636C90.7355 171.802 90.2606 171.968 89.7714 172.138C86.6944 173.47 83.8871 175.176 81.0135 176.896C80.4316 177.242 79.8497 177.587 79.2501 177.943C77.8217 178.792 76.3948 179.642 74.9692 180.495C75.2128 181.713 75.4564 182.931 75.7074 184.186Z" fill="#1565C0"/>
</svg>
